<svg xmlns="http://www.w3.org/2000/svg" viewBox="0 0 100 100">
  <linearGradient id="pyGradient" x1="10%" y1="10%" x2="90%" y2="90%">
    <stop offset="0%" style="stop-color:#306998"/>
    <stop offset="100%" style="stop-color:#FFD43B"/>
  </linearGradient>
  <path fill="#306998" d="M50.1 0C24.4 0 25.9 11.2 25.9 11.2v11.6h24.6v3.5H15.1S0 24.3 0 50s13.2 24.7 13.2 24.7h7.9V62.8s-.4-13.2 13-13.2h22.4s12.6.2 12.6-12.2V13.5S71.3 0 50.1 0zM36.2 7.8c2.3 0 4.1 1.8 4.1 4.1 0 2.3-1.8 4.1-4.1 4.1-2.3 0-4.1-1.8-4.1-4.1 0-2.3 1.8-4.1 4.1-4.1z"/>
  <path fill="#FFD43B" d="M49.9 100c25.7 0 24.2-11.2 24.2-11.2V77.2H49.5v-3.5h35.4S100 75.7 100 50s-13.2-24.7-13.2-24.7h-7.9v11.9s.4 13.2-13 13.2H43.5s-12.6-.2-12.6 12.2v23.9S28.7 100 49.9 100zm13.9-7.8c-2.3 0-4.1-1.8-4.1-4.1 0-2.3 1.8-4.1 4.1-4.1 2.3 0 4.1 1.8 4.1 4.1 0 2.3-1.8 4.1-4.1 4.1z"/>
</svg>
