<svg xmlns="http://www.w3.org/2000/svg" viewBox="0 0 400 400">
  <path fill="#007acc" d="M0 200V0h400v400H0"/>
  <path fill="#fff" d="M87.7 200.7V217h52v148h36.9V217h52v-16c0-9-.3-16.3-.7-16.7s-31.4-.5-69.7-.5H88zm239.5.7c11.5 3.4 21.1 9.5 29.2 18.8 4.1 4.7 10.3 13.8 10.7 15.8.2.8-19.1 13.6-30.8 20.4-.4.3-2.1-1.6-4-4.5-5.7-8.6-11.7-12.3-20.4-12.5-12.6-.3-20.7 7.3-20.6 19.2 0 3.6.5 5.8 1.9 8.8 3 6.2 8.6 10 25.1 17 30.4 12.9 43.4 21.4 52.2 34.2 9.8 14.2 12 37 5.2 53.9-7.4 18.4-25.8 31.1-51.3 35.4-7.9 1.4-26.6 1.2-35-.4-18.1-3.3-35.3-12.5-46.3-24.7-4.3-4.8-12.7-17.2-12.3-18.2.2-.3 1.8-1.3 3.6-2.3l14.4-8.4 11.2-6.6 2.4 3.5c3.3 4.8 10.6 11.4 15 13.5 12.6 5.9 29.8 5.1 38.1-1.8 3.6-3 5.2-6.4 5.2-11.3 0-4.4-.7-6.4-3.3-9.9-3.4-4.5-10.4-8.2-30-15.6-22.3-8.4-32-13.9-40.9-23.2-5.2-5.4-10.2-14.2-12.2-21.7-1.7-6.4-2.1-22.3-.8-28.6 4.5-22.2 22.3-37.7 47.5-41.5 8-1.2 26.5-.3 34.6 1.7z"/>
</svg>
